<mxfile host="app.diagrams.net" modified="2024-03-28T06:31:06.200Z" agent="Mozilla/5.0 (X11; Linux x86_64) AppleWebKit/537.36 (KHTML, like Gecko) Chrome/123.0.0.0 Safari/537.36" version="24.2.0" etag="gYql-fAtaFE9iWw7fZl_" type="github">
  <diagram name="Page-1" id="6tkJEkV1zsNGiHZA1X_k">
    <mxGraphModel>
      <root>
        <mxCell id="0" />
        <mxCell id="1" parent="0" />
      </root>
    </mxGraphModel>
  </diagram>
</mxfile>
